<?xml version="1.0" encoding="utf-8"?>
<!-- Generator: Adobe Illustrator 25.0.1, SVG Export Plug-In . SVG Version: 6.00 Build 0)  -->
<svg version="1.1" id="레이어_1" xmlns="http://www.w3.org/2000/svg" xmlns:xlink="http://www.w3.org/1999/xlink" x="0px"
	 y="0px" viewBox="0 0 400 400" style="enable-background:new 0 0 400 400;" xml:space="preserve">
<style type="text/css">
	.st0{fill:#FFFFFF;}
	.st1{font-family:'NanumGothicOTFExtraBold-KSCpc-EUC-H';}
	.st2{font-size:106.5406px;}
</style>
<g>
	<path class="st0" d="M20,395.64c-8.27,0-15-6.73-15-15v-360c0-8.27,6.73-15,15-15h360c8.27,0,15,6.73,15,15v360
		c0,8.27-6.73,15-15,15H20z"/>
	<path d="M380,10.64c5.51,0,10,4.49,10,10v360c0,5.51-4.49,10-10,10H20c-5.51,0-10-4.49-10-10v-360c0-5.51,4.49-10,10-10H380
		 M380,0.64H20c-11.05,0-20,8.95-20,20v360c0,11.05,8.95,20,20,20h360c11.05,0,20-8.95,20-20v-360C400,9.59,391.05,0.64,380,0.64
		L380,0.64z"/>
</g>
<text transform="matrix(1 0 0 1 38.7002 232.2588)" class="st1 st2">OHHO</text>
</svg>
